<?xml version="1.0" standalone="no"?>
<!DOCTYPE svg PUBLIC "-//W3C//DTD SVG 20010904//EN"
 "http://www.w3.org/TR/2001/REC-SVG-20010904/DTD/svg10.dtd">
<svg version="1.0" xmlns="http://www.w3.org/2000/svg"
 width="296.000000pt" height="171.000000pt" viewBox="0 0 296.000000 171.000000"
 preserveAspectRatio="xMidYMid meet">

<g transform="translate(0.000000,171.000000) scale(0.100000,-0.100000)"
fill="#000000" stroke="none">
<path d="M1369 1701 c-119 -22 -211 -93 -243 -188 -24 -70 -39 -209 -33 -303
13 -194 106 -337 267 -414 89 -42 152 -42 240 0 162 77 254 220 267 414 6 95
-9 233 -34 305 -23 68 -93 137 -167 164 -67 25 -220 36 -297 22z m10 -299 c50
-70 194 -110 333 -92 40 5 79 10 87 10 11 0 13 -20 9 -103 -4 -89 -9 -113 -36
-170 -59 -128 -187 -227 -292 -227 -105 0 -233 99 -292 227 -28 58 -32 80 -36
172 l-4 106 40 39 c26 25 58 43 89 52 69 18 79 17 102 -14z"/>
<path d="M1248 1282 c-67 -4 -74 -18 -52 -98 23 -85 40 -98 133 -92 80 4 105
20 123 80 7 24 17 38 28 38 11 0 21 -14 28 -38 18 -60 43 -76 123 -80 93 -6
110 7 134 93 24 91 18 97 -110 97 -71 0 -108 -5 -136 -18 -36 -16 -42 -16 -76
-1 -41 17 -119 24 -195 19z m160 -39 c26 -6 29 -40 7 -83 -27 -52 -129 -65
-169 -21 -12 13 -16 32 -14 62 2 36 7 44 28 51 24 7 102 2 148 -9z m313 1 c17
-10 10 -90 -9 -107 -45 -41 -141 -28 -167 23 -18 35 -19 66 -3 76 33 21 150
26 179 8z"/>
<path d="M1070 709 c-91 -50 -175 -100 -188 -112 -46 -43 -122 -243 -122 -324
0 -29 58 -94 113 -126 60 -35 172 -73 274 -94 127 -26 539 -26 667 0 170 35
298 94 360 167 31 38 32 54 6 154 -25 99 -65 187 -98 219 -29 27 -323 194
-358 203 -14 3 -36 -4 -60 -19 -22 -13 -59 -30 -83 -38 -40 -14 -46 -20 -69
-77 -14 -34 -28 -62 -32 -62 -4 0 -18 28 -32 62 -23 57 -29 63 -70 78 -24 8
-60 25 -80 38 -19 12 -42 22 -49 22 -8 0 -89 -41 -179 -91z m450 -304 c0 -32
-45 -168 -58 -172 -23 -9 -24 4 -2 79 12 40 24 81 26 91 6 21 34 23 34 2z
m-110 -40 c0 -9 -16 -23 -35 -32 -19 -9 -35 -20 -35 -24 0 -4 16 -13 35 -19
25 -8 35 -18 35 -32 0 -11 -4 -18 -8 -16 -4 2 -33 14 -65 27 -35 15 -57 31
-57 40 0 9 24 27 58 43 68 32 72 32 72 13z m213 -14 c35 -15 57 -31 57 -40 0
-16 -118 -76 -128 -66 -11 11 10 37 38 46 39 14 38 22 -5 42 -19 9 -35 24 -35
33 0 8 4 14 8 12 4 -1 33 -14 65 -27z"/>
</g>
</svg>
